# xmcd
# 
# Track frame offsets:
#     180
#     17764
#     31484
#     45457
#     63632
#     77778
#     89927
#     100854
#     118490
#     135057
#     148603
#     161851
# 
# Disc length: 2362
# 
# Revision: 4
# Processed by: cddbd v1.5.2PL0 Copyright (c) Steve Scherf et al.
# Submitted via: fre:ac v1.0.31
# 
DISCID=a809380c
DTITLE=BCHot80's (USA-cty-98) - Big Country Hits Of the 80's
DYEAR=1998
DGENRE=Country
TTITLE0=Deborah Allen - Baby I Lied - 1983
TTITLE1=Mel McDaniel - Baby's Got Her Blue Jeans On - 1984
TTITLE2=Lee Greenwood - Dixie Road - 1984
TTITLE3=T. Graham Brown - Don't Go To Strangers - 1987
TTITLE4=T. Graham Brown - Hell And High Water - 1986
TTITLE5=Johnny Lee - Hey Bartender - 1983
TTITLE6=Eddy Raven - I got Mexico - 1984
TTITLE7=Merle Haggard - I Think I'll Just Stay Here And Drink - 1980
TTITLE8=Eddy Raven - Joe Knows How To Live - 1988
TTITLE9=The Kendalls - Thank God For The Radio - 1984
TTITLE10=Merle Haggard - The Way I am - 1980
TTITLE11=Ed Bruce - You're The Best Break This Old Heart Ever Had - 1981
EXTD=YEAR: 1998
EXTT0=
EXTT1=
EXTT2=
EXTT3=
EXTT4=
EXTT5=
EXTT6=
EXTT7=
EXTT8=
EXTT9=
EXTT10=
EXTT11=
PLAYORDER=
